<svg xmlns="http://www.w3.org/2000/svg" version="1.1" xmlns:xlink="http://www.w3.org/1999/xlink" xmlns:svgjs="http://svgjs.dev/svgjs" viewBox="0 0 6.939968246469999 1.651931381481385"><g transform="matrix(1,0,0,1,0.2674749790900872,0.2934656907406926)"><g><path d=" M 0.0915 1.0649999999999997 L 0.0915 -2.220446049250313e-16 L 0.8220000000000001 -2.220446049250313e-16 L 0.8220000000000001 0.25499999999999967 L 0.384 0.25499999999999967 L 0.384 0.4319999999999997 L 0.741 0.4319999999999997 L 0.741 0.6689999999999997 L 0.384 0.6689999999999997 L 0.384 1.0649999999999997 L 0.0915 1.0649999999999997 M 0.950982421875 1.0649999999999997 L 0.950982421875 -2.220446049250313e-16 L 1.243482421875 -2.220446049250313e-16 L 1.243482421875 1.0649999999999997 L 0.950982421875 1.0649999999999997 M 1.44150732421875 1.0649999999999997 L 1.44150732421875 -2.220446049250313e-16 L 1.7340073242187501 -2.220446049250313e-16 L 1.7340073242187501 0.8099999999999997 L 2.2170073242187502 0.8099999999999997 L 2.2170073242187502 1.0649999999999997 L 1.44150732421875 1.0649999999999997 M 3.139540283203125 1.0649999999999997 L 3.139540283203125 0.5039999999999997 L 2.961040283203125 0.8984999999999997 L 2.805040283203125 0.8984999999999997 L 2.626540283203125 0.5039999999999997 L 2.626540283203125 1.0649999999999997 L 2.334040283203125 1.0649999999999997 L 2.334040283203125 -2.220446049250313e-16 L 2.653540283203125 -2.220446049250313e-16 L 2.8830402832031248 0.5009999999999997 L 3.114040283203125 -2.220446049250313e-16 L 3.4320402832031247 -2.220446049250313e-16 L 3.4320402832031247 1.0649999999999997 L 3.139540283203125 1.0649999999999997 M 3.630046142578125 1.0649999999999997 L 3.630046142578125 -2.220446049250313e-16 L 3.922546142578125 -2.220446049250313e-16 L 3.922546142578125 1.0649999999999997 L 3.630046142578125 1.0649999999999997 M 4.329071044921875 -2.220446049250313e-16 L 4.522571044921875 0.33599999999999974 L 4.7160710449218755 -2.220446049250313e-16 L 5.031071044921875 -2.220446049250313e-16 L 4.696571044921875 0.5399999999999997 L 5.019071044921875 1.0649999999999997 L 4.704071044921875 1.0649999999999997 L 4.522571044921875 0.7439999999999998 L 4.3410710449218755 1.0649999999999997 L 4.024571044921875 1.0649999999999997 L 4.347071044921875 0.5399999999999997 L 4.012571044921875 -2.220446049250313e-16 L 4.329071044921875 -2.220446049250313e-16" fill="#431a10" fill-rule="nonzero"></path></g><g></g><g clip-path="url(&quot;#SvgjsClipPath1010&quot;)"><g clip-path="url(&quot;#b816a422a-2cc3-4f39-9ebb-a4f5e3d1e8f9a115d86c-f82f-4aee-89cb-1bcd08e7704b&quot;)"><path d=" M 6.137463447933099 -0.025990711650605625 C 5.896593555219405 0.13079227186925096 5.655854432222405 0.2877971676356192 5.414544677734375 0.4441244385063893" fill="#ffffff" transform="matrix(1,0,0,1,0,0)" fill-rule="nonzero"></path></g><g clip-path="url(&quot;#b816a422a-2cc3-4f39-9ebb-a4f5e3d1e8f9a115d86c-f82f-4aee-89cb-1bcd08e7704b&quot;)"><path d=" M 6.137463447933099 -0.025990711650605625 L 6.137863682520558 -0.025990711650605625 C 6.159983578235348 0.01103495040800196 6.182947533030621 0.047216553386127555 6.204849479217588 0.08446016497255913 C 5.988536554211626 0.21820588340142033 5.772009642396527 0.35186442201915197 5.556098933337366 0.48599254280137705 C 5.801016743190555 0.4310494481962939 6.035932651075967 0.378240277604542 6.280973305208475 0.32342200863812165 C 6.288555967417405 0.3505170976653309 6.28004008495752 0.3224769002311031 6.288233005844358 0.3511967039202729 C 6.289279163577913 0.35487014414377904 6.293473701308852 0.37391100743822003 6.293329062076751 0.3766769850822408 C 6.29486065284955 0.3827617396272177 6.2965368828544515 0.39022155755682963 6.298649011915 0.3991753204317077 C 6.299061134658522 0.40505797632361146 6.305011156768117 0.42856482357910036 6.307327365841083 0.4393394556909807 C 6.348904210312524 0.6213372182207286 6.367142623072704 0.7122241526826748 6.405018288289825 0.9029597099188208 L 6.405018288289825 0.9135857400799119 C 6.116268847031888 0.9763076514689676 5.86657596116001 1.0275792872098886 5.575520217625828 1.0909907116506052 C 5.575121964397712 1.0909907116506052 5.573485361579689 1.0853101544117747 5.573087108351574 1.0853101544117747 C 5.536475550395832 0.9050104168397102 5.516105194981664 0.808282435032081 5.479140955062716 0.6283433048605978 C 5.472015986862216 0.6247015663865932 5.464500690870977 0.6214521370626721 5.456811035257477 0.6183750860016662 C 5.456735743602411 0.6180521244286179 5.456412782029362 0.6179768327735514 5.456412782029362 0.6175785795454367 C 5.449789097742857 0.5944323396905293 5.442323335735214 0.5677077648606209 5.435279603267811 0.5430121019988193 C 5.434257221846382 0.5394238602270991 5.431760709073125 0.5340504136865658 5.43248786795232 0.5318471420961997 C 5.434441488265361 0.5259407098921697 5.437005367256308 0.5184056003074914 5.439666332855105 0.5127091921939099 L 5.439666332855105 0.5119107043783365 C 5.431301033705352 0.4895748404950655 5.423088299225075 0.46708244922363024 5.414544677734375 0.44492292632196234 L 5.414544677734375 0.444124438506389 C 5.655854432222405 0.2877971676356192 5.896593555219405 0.13079227186925096 6.137463447933099 -0.025990711650605625 M 6.090412107594588 0.05575224943945242 C 6.081933870962235 0.0531229855901576 6.073653770264268 0.04935840283683421 6.0652904524738585 0.047775296721094526 C 6.064430542518625 0.04761282525489846 6.064095692789514 0.04832809597802991 6.063695458202055 0.048573784536667844 C 6.038553989487887 0.06404621965282702 6.010545493803161 0.07917984232118709 5.985144467014947 0.09522687164706406 C 6.013545271849756 0.10516537011583785 6.04258605575263 0.11454710660898856 6.071272176332954 0.1247332749957441 C 6.0752210255052566 0.1261340960518492 6.08074901807461 0.1293458795482372 6.083631895919918 0.1291200045830378 C 6.085898571009288 0.1289416822420909 6.090869801603018 0.12505821792813626 6.094000349366309 0.12313828072394128 C 6.118133306174455 0.10834743322206802 6.142410902214704 0.09387162185586762 6.165374857009977 0.07927692892903594 C 6.14076439259996 0.07141885777130931 6.115181080752112 0.06343001689688829 6.090412107594588 0.05575224943945241 M 5.814484042650734 0.2084694835857197 C 5.847346868727903 0.2174727804441942 5.880102701400505 0.2265850520665807 5.912971471555705 0.23558240484702359 C 5.944348278124984 0.21658513145814742 5.976529516587868 0.1983922899628761 6.007074152232727 0.17856284564958108 C 5.969309443138862 0.1706057065246617 5.932192638550437 0.16200066289430196 5.894630028109645 0.15384142511630944 C 5.867913378717112 0.17205011748633156 5.841083791841979 0.19014587237375405 5.814484042650734 0.2084694835857197 M 5.652194861514306 0.3165288594808522 C 5.685037873998036 0.32555395129210907 5.717835315216859 0.33462263300893075 5.7506842717786215 0.34364178074215607 C 5.775752430197067 0.3260096639411955 5.802908941363936 0.30763453738628965 5.828040503281385 0.2902104633164338 C 5.829562187257466 0.28915439878615945 5.832171637513322 0.28739693304816055 5.831628745053106 0.28662222154471345 C 5.798882819177224 0.2780330287891045 5.765393883547397 0.2701848644280972 5.732342828332561 0.2619008010114418 C 5.705586551753151 0.28006986619458685 5.678768853034081 0.29817552787872853 5.652194861514306 0.3165288594808521 M 6.151418161791866 0.363580199819363 C 6.13680563663094 0.39440816985039395 6.119758020836416 0.42602670225962286 6.105563562497043 0.4564861394526969 C 6.104709596619841 0.45831691548641834 6.1033028314857045 0.4603636596886199 6.103570314997126 0.4624678633117933 C 6.134681619414327 0.45583229086922494 6.166312039979619 0.4497138532154024 6.197274742446033 0.4429296788220449 C 6.214764201374235 0.4107088131722843 6.232780701887904 0.3768889905320331 6.248712812371837 0.3444402685577293 C 6.216624697798115 0.3511610394520835 6.1838866973596085 0.35723786855968503 6.151418161791866 0.363580199819363 M 5.5608839161527746 0.36995819554723036 C 5.534321812789062 0.38818868287003494 5.507246537355291 0.40590599812278116 5.481136183921977 0.42458625401664063 C 5.5093269646663385 0.4318340664964601 5.538502481004595 0.44035193031569025 5.566465405424412 0.44811291486556803 C 5.570598521015692 0.44926012192565973 5.5764930650636595 0.4515882191546887 5.579225359598835 0.4513029034091737 C 5.5816644129511195 0.4510473080538165 5.586489022953405 0.4467160565281508 5.5895918316858815 0.4445246730938478 C 5.612379445499551 0.42841820298765515 5.634758899288387 0.41319145643013394 5.656979844329714 0.39787158598345157 C 5.658378684026475 0.3969066639829944 5.661344778964225 0.3952106203846551 5.660568086101434 0.39428334421173117 C 5.627277286405993 0.3862390252756822 5.594549192764205 0.3776300189266347 5.5608839161527746 0.3699581955472305 M 5.956434570122496 0.41222455307033296 C 5.9395613139502315 0.4417388818563884 5.923545986373856 0.4721111392383329 5.906991729055953 0.501942485519405 C 5.938636019136652 0.4954436268715626 5.970133688625905 0.48879418491358695 6.001890916189204 0.4824043010296566 C 6.0182688325255045 0.4549961572261184 6.034840922077503 0.42571562884263775 6.050935504027633 0.3982698392115663 C 6.051864761559901 0.3966867330958266 6.053717332546404 0.3950976829020553 6.053328986115009 0.39308660316804306 C 6.021195300276378 0.3996310330807942 5.988492964306061 0.4056048315025153 5.956434570122496 0.41222455307033296 M 5.860338641945557 0.4397377089190954 C 5.861751351157725 0.43732837595696844 5.865248450399628 0.43389269885472487 5.860338641945557 0.43495470746303083 C 5.830812425003438 0.4413366659095859 5.796980714207123 0.44690824838450455 5.765437473452962 0.45329615090909126 C 5.749558859671312 0.4835376385743413 5.732588516891199 0.5126873972411276 5.716791138842647 0.5430121019988196 C 5.74852459009382 0.5368659253141831 5.77937237371829 0.5298340810028437 5.811292072747785 0.5238741520965297 C 5.826827911362947 0.4974309302934484 5.844364922915402 0.46697545581906225 5.860338641945557 0.4397377089190954 M 5.473559465791078 0.45329615090909126 C 5.463840898209472 0.46589363361731767 5.478298877341579 0.4811065106594319 5.491104402780909 0.4760243239424453 C 5.505376134134693 0.4703615989377094 5.5006149276314105 0.44480008204264354 5.4819326903782075 0.44851116809368285 C 5.4775439794315695 0.4493829662049788 5.475309006091702 0.4510294758197218 5.473559465791078 0.45329615090909126 M 5.58241534814244 0.49516425520407903 C 5.570126957491856 0.5175238953994763 5.557384835551527 0.540487850194749 5.545332226662861 0.5625522678479119 C 5.541090136307669 0.5703191964758212 5.536548860691554 0.5777631635306824 5.533769013532127 0.585278459521922 C 5.564816914450326 0.5784467325043121 5.596473092687088 0.5722232828052654 5.627871694209149 0.5657422563915174 C 5.644338771715923 0.5384113856023897 5.660758296598444 0.5090040502209022 5.676916282047577 0.48160581321408324 C 5.67785346501722 0.4800207257389998 5.679836805720418 0.47851489263767044 5.6793097641349535 0.47642257717056 C 5.6470611594543785 0.48271933716532955 5.615085982363256 0.4892895247495507 5.58241534814244 0.49516425520407903 M 5.505059116639676 0.5270641406401353 C 5.505255271214717 0.5430854122945421 5.528143934354924 0.5459900850926328 5.533370760304011 0.5326456299117732 C 5.53824292293055 0.5202026932323675 5.527301856633786 0.5112330794827384 5.517420817585983 0.51270919219391 C 5.509263561167335 0.5139257468310365 5.504964011391171 0.5192100322010963 5.505059116639676 0.5270641406401353" fill="#231f20" transform="matrix(1,0,0,1,0,0)" fill-rule="nonzero"></path></g><g clip-path="url(&quot;#b816a422a-2cc3-4f39-9ebb-a4f5e3d1e8f9a115d86c-f82f-4aee-89cb-1bcd08e7704b&quot;)"><path d=" M 6.165374857009977 0.07927692892903594 C 6.142410902214704 0.09387360321521149 6.118133306174455 0.10834743322206802 6.094000349366309 0.12313828072394128 C 6.090869801603018 0.12505821792813623 6.085898571009288 0.12894168224209088 6.083631895919918 0.1291200045830378 C 6.08074901807461 0.12934587954823717 6.0752210255052566 0.12613409605184916 6.071272176332954 0.1247332749957441 C 6.04258605575263 0.11454710660898851 6.013545271849756 0.10516537011583782 5.985144467014947 0.09522687164706405 C 6.010545493803161 0.07917984232118706 6.038553989487887 0.064046219652827 6.063695458202055 0.048573784536667816 C 6.064095692789514 0.04832809597802987 6.064430542518625 0.04761282525489842 6.065290452473858 0.04777727808043834 C 6.0736517889049235 0.04935840283683417 6.081933870962235 0.05312298559015757 6.090412107594588 0.055752249439452395 C 6.115181080752112 0.06343001689688828 6.14076439259996 0.0714188577713093 6.165374857009977 0.07927692892903594" fill="#ffffff" transform="matrix(1,0,0,1,0,0)" fill-rule="nonzero"></path></g><g clip-path="url(&quot;#b816a422a-2cc3-4f39-9ebb-a4f5e3d1e8f9a115d86c-f82f-4aee-89cb-1bcd08e7704b&quot;)"><path d=" M 5.894628046750301 0.15384142511630938 C 5.932190657191093 0.1620006628943019 5.969307461779518 0.17060570652466167 6.007072170873384 0.17856284564958103 C 5.976527535228524 0.19839228996287608 5.94434629676564 0.2165851314581474 5.912969490196361 0.23558240484702353 C 5.880100720041161 0.22658505206658064 5.847344887368559 0.21747278044419416 5.81448206129139 0.20846948358571965 C 5.841083791841979 0.19014587237375397 5.867911397357768 0.1720481361269877 5.894628046750301 0.15384142511630938" fill="#ffffff" transform="matrix(1,0,0,1,0,0)" fill-rule="nonzero"></path></g><g clip-path="url(&quot;#b816a422a-2cc3-4f39-9ebb-a4f5e3d1e8f9a115d86c-f82f-4aee-89cb-1bcd08e7704b&quot;)"><path d=" M 5.732340846973217 0.261900801011442 C 5.765391902188052 0.2701868457874411 5.7988808378178796 0.27803302878910463 5.831628745053106 0.2866242029040574 C 5.832169656153978 0.28739693304816066 5.829562187257466 0.2891563801455034 5.828038521922042 0.2902124446757778 C 5.802906960004592 0.3076345373862897 5.775752430197067 0.3260116453005395 5.750682290419277 0.3436437621015 C 5.717835315216859 0.3346226330089308 5.685035892638693 0.32555395129210907 5.652194861514306 0.3165288594808522 C 5.678766871674737 0.29817750923807257 5.705584570393807 0.280069866194587 5.732340846973217 0.261900801011442" fill="#ffffff" transform="matrix(1,0,0,1,0,0)" fill-rule="nonzero"></path></g><g clip-path="url(&quot;#b816a422a-2cc3-4f39-9ebb-a4f5e3d1e8f9a115d86c-f82f-4aee-89cb-1bcd08e7704b&quot;)"><path d=" M 6.2487108310124935 0.3444402685577295 C 6.23277872052856 0.3768889905320334 6.214762220014892 0.41070881317228447 6.197272761086689 0.4429296788220451 C 6.166310058620276 0.4497138532154027 6.134681619414327 0.4558322908692251 6.1035683336377815 0.46246786331179357 C 6.103300850126361 0.4603636596886202 6.104709596619841 0.45831691548641856 6.105561581137699 0.45648613945269706 C 6.119756039477072 0.426026702259623 6.136805636630939 0.39440816985039423 6.151416180432522 0.36358019981936324 C 6.1838866973596085 0.3572378685596852 6.216622716438771 0.35116302081142753 6.2487108310124935 0.3444402685577295" fill="#ffffff" transform="matrix(1,0,0,1,0,0)" fill-rule="nonzero"></path></g><g clip-path="url(&quot;#b816a422a-2cc3-4f39-9ebb-a4f5e3d1e8f9a115d86c-f82f-4aee-89cb-1bcd08e7704b&quot;)"><path d=" M 5.660568086101434 0.3942813628523874 C 5.661344778964225 0.39521062038465515 5.658378684026475 0.3969066639829945 5.656979844329714 0.39786960462410775 C 5.634756917929042 0.41319145643013405 5.6123774641402076 0.42841820298765526 5.5895918316858815 0.444522691734504 C 5.586489022953406 0.44671605652815083 5.5816644129511195 0.45104730805381654 5.579225359598835 0.45130092204982997 C 5.5764930650636595 0.45158821915468883 5.570596539656349 0.4492581405663161 5.566465405424412 0.44811093350622433 C 5.538500499645251 0.44034994895634655 5.5093269646663385 0.4318340664964603 5.481134202562634 0.4245862540166408 C 5.507246537355291 0.40590599812278133 5.534321812789062 0.3881886828700351 5.56088193479343 0.36995819554723053 C 5.594549192764205 0.377628037567291 5.627275305046648 0.3862370439163385 5.660568086101434 0.3942813628523874" fill="#ffffff" transform="matrix(1,0,0,1,0,0)" fill-rule="nonzero"></path></g><g clip-path="url(&quot;#b816a422a-2cc3-4f39-9ebb-a4f5e3d1e8f9a115d86c-f82f-4aee-89cb-1bcd08e7704b&quot;)"><path d=" M 6.053328986115009 0.3930866031680432 C 6.053717332546404 0.3950976829020555 6.0518627802005565 0.3966867330958267 6.050935504027633 0.39826983921156645 C 6.034840922077503 0.4257156288426379 6.0182688325255045 0.45499615722611847 6.001888934829861 0.4824043010296568 C 5.970133688625905 0.4887941849135873 5.938636019136652 0.4954436268715626 5.906989747696609 0.5019424855194051 C 5.923545986373856 0.472111139238333 5.9395613139502315 0.44173888185638854 5.956434570122496 0.4122245530703331 C 5.988490982946717 0.40560483150251553 6.0211933189170335 0.39963103308079434 6.053328986115009 0.3930866031680432" fill="#ffffff" transform="matrix(1,0,0,1,0,0)" fill-rule="nonzero"></path></g><g clip-path="url(&quot;#b816a422a-2cc3-4f39-9ebb-a4f5e3d1e8f9a115d86c-f82f-4aee-89cb-1bcd08e7704b&quot;)"><path d=" M 5.811292072747785 0.5238741520965298 C 5.77937237371829 0.5298340810028439 5.74852459009382 0.536867906673527 5.716791138842647 0.5430140833581636 C 5.732586535531855 0.5126893786004716 5.749558859671312 0.4835396199336853 5.765437473452962 0.4532961509090914 C 5.796980714207123 0.4469102297438487 5.830812425003438 0.4413366659095862 5.860336660586213 0.4349547074630311 C 5.865246469040284 0.43389468021406896 5.861751351157725 0.4373283759569686 5.860336660586213 0.43973969027843945 C 5.844364922915402 0.46697743717840623 5.826827911362947 0.49743291165279246 5.811292072747785 0.5238741520965298" fill="#ffffff" transform="matrix(1,0,0,1,0,0)" fill-rule="nonzero"></path></g><g clip-path="url(&quot;#b816a422a-2cc3-4f39-9ebb-a4f5e3d1e8f9a115d86c-f82f-4aee-89cb-1bcd08e7704b&quot;)"><path d=" M 5.481930709018863 0.44851116809368297 C 5.500612946272067 0.4447981006832998 5.505372171416005 0.4703615989377095 5.491102421421566 0.4760243239424454 C 5.4782968959822345 0.4811045293000882 5.463838916850129 0.46589363361731784 5.473557484431735 0.45329615090909137 C 5.475307024732358 0.45102947581972186 5.477541998072226 0.4493829662049789 5.481930709018863 0.44851116809368297" fill="#ffffff" transform="matrix(1,0,0,1,0,0)" fill-rule="nonzero"></path></g><g clip-path="url(&quot;#b816a422a-2cc3-4f39-9ebb-a4f5e3d1e8f9a115d86c-f82f-4aee-89cb-1bcd08e7704b&quot;)"><path d=" M 5.679307782775609 0.47642257717056014 C 5.679834824361075 0.47851489263767044 5.677851483657877 0.48001874437965597 5.676916282047578 0.48160581321408336 C 5.660756315239101 0.5090040502209022 5.644336790356579 0.5384113856023897 5.6278697128498045 0.5657402750321737 C 5.596471111327744 0.5722232828052652 5.5648149330909815 0.578446732504312 5.533767032172783 0.585278459521922 C 5.536546879332211 0.5777631635306822 5.541088154948325 0.5703191964758212 5.545332226662861 0.5625502864885681 C 5.557384835551527 0.540487850194749 5.570124976132512 0.5175238953994763 5.582413366783097 0.49516425520407914 C 5.615084001003912 0.48928754339020697 5.647059178095035 0.48271933716532955 5.679307782775609 0.47642257717056014" fill="#ffffff" transform="matrix(1,0,0,1,0,0)" fill-rule="nonzero"></path></g><g clip-path="url(&quot;#b816a422a-2cc3-4f39-9ebb-a4f5e3d1e8f9a115d86c-f82f-4aee-89cb-1bcd08e7704b&quot;)"><path d=" M 5.51741883622664 0.5127091921939102 C 5.527299875274442 0.5112330794827387 5.538240941571206 0.5202026932323676 5.533368778944668 0.5326456299117733 C 5.52814195299558 0.5459920664519767 5.505253289855374 0.5430854122945423 5.505057135280333 0.5270641406401354 C 5.504962030031828 0.5192100322010965 5.509261579807991 0.5139277281903806 5.51741883622664 0.5127091921939102" fill="#ffffff" transform="matrix(1,0,0,1,0,0)" fill-rule="nonzero"></path></g><g clip-path="url(&quot;#b816a422a-2cc3-4f39-9ebb-a4f5e3d1e8f9a115d86c-f82f-4aee-89cb-1bcd08e7704b&quot;)"><path d=" M 5.507575443006371 0.7320119884497491 L 6.326328601948647 0.5552529400251522" fill="none" transform="matrix(1,0,0,1,0,0)" fill-rule="nonzero" stroke-dasharray="none" stroke-miterlimit="4" stroke-linejoin="miter" stroke-linecap="butt" stroke-width="0.0016504723334307336" stroke="#ffffff"></path></g><g clip-path="url(&quot;#b816a422a-2cc3-4f39-9ebb-a4f5e3d1e8f9a115d86c-f82f-4aee-89cb-1bcd08e7704b&quot;)"><path d=" M 5.547287828335246 0.9374571574546703 L 6.369637154486616 0.7591130215549899" fill="none" transform="matrix(1,0,0,1,0,0)" fill-rule="nonzero" stroke-dasharray="none" stroke-miterlimit="4" stroke-linejoin="miter" stroke-linecap="butt" stroke-width="0.0016504723334307336" stroke="#ffffff"></path></g><g clip-path="url(&quot;#b816a422a-2cc3-4f39-9ebb-a4f5e3d1e8f9a115d86c-f82f-4aee-89cb-1bcd08e7704b&quot;)"><path d=" M 6.225326828036323 0.5762553490700092 L 6.277278070032186 0.7825406144367245" fill="none" transform="matrix(1,0,0,1,0,0)" fill-rule="nonzero" stroke-dasharray="none" stroke-miterlimit="4" stroke-linejoin="miter" stroke-linecap="butt" stroke-width="0.0016504723334307336" stroke="#ffffff"></path></g><g clip-path="url(&quot;#b816a422a-2cc3-4f39-9ebb-a4f5e3d1e8f9a115d86c-f82f-4aee-89cb-1bcd08e7704b&quot;)"><path d=" M 5.708935049044265 0.9032806901325254 L 5.744167580896684 1.0531625990577371" fill="none" transform="matrix(1,0,0,1,0,0)" fill-rule="nonzero" stroke-dasharray="none" stroke-miterlimit="4" stroke-linejoin="miter" stroke-linecap="butt" stroke-width="0.0016504723334307336" stroke="#ffffff"></path></g></g></g><defs><clipPath id="SvgjsClipPath1010"><path d=" M 5.414544677734375 -0.025990711650605625 h 0.99047361055545 v 1.116981423301211 h -0.99047361055545 Z"></path></clipPath><clipPath id="b816a422a-2cc3-4f39-9ebb-a4f5e3d1e8f9a115d86c-f82f-4aee-89cb-1bcd08e7704b"><path d=" M 5.412563318390521 -0.02797207099446002 L 6.406999647633679 -0.02797207099446002 L 6.406999647633679 1.0929720709944601 L 5.412563318390521 1.0929720709944601 Z"></path></clipPath></defs></svg>